<?xml version="1.0" encoding="UTF-8"?>
<svg width="100px" height="24px" viewBox="0 0 100 24" version="1.1" xmlns="http://www.w3.org/2000/svg" xmlns:xlink="http://www.w3.org/1999/xlink">
    <title> Collabera Logos/ Collabera</title>
    <g id="page-1" stroke="none" stroke-width="1" fill="none" fill-rule="evenodd">
        <g id="Logos" transform="translate(-362.000000, -1547.000000)" fill="#29ABE2" fill-rule="nonzero">
            <g id="Collabera-logo-(1)" transform="translate(362.000000, 1547.000000)">
                <path d="M52.1414309,21.21797 C52.0599002,21.6455907 51.9900166,22.0116473 51.9201331,22.3826955 C51.8985025,22.4908486 51.8818636,22.6006656 51.8502496,22.7054908 C51.7805299,23.0079686 51.5149645,23.2249383 51.2046589,23.2329451 C50.8965399,23.2507126 50.5876531,23.2507126 50.2795341,23.2329451 C49.9317468,23.2185758 49.6583351,22.930425 49.6621885,22.5823627 C49.6621885,22.4825291 49.6621885,22.3843594 49.6621885,22.2845258 C49.6621885,15.1852468 49.6621885,8.08596783 49.6621885,0.986688852 C49.6621885,0.898502496 49.6621885,0.81031614 49.6621885,0.722129784 C49.672213,0.366056572 49.8419301,0.129783694 50.1963394,0.071547421 C50.6968598,-0.0141224754 51.2082983,-0.0141224754 51.7088186,0.071547421 C51.9923697,0.121834898 52.1983305,0.369269048 52.1963394,0.657237937 C52.1963394,0.767054908 52.1963394,0.878535774 52.1963394,0.990016639 C52.1963394,3.71436495 52.1963394,6.43815862 52.1963394,9.16139767 L52.1963394,9.47753744 L52.2462562,9.48419301 C52.3826955,9.29118136 52.5141431,9.09484193 52.6539101,8.90515807 C53.5690516,7.67387687 54.8169717,7.14642263 56.3144759,7.29783694 C57.7716477,7.41447221 59.084603,8.22253989 59.8452579,9.47088186 C60.4645497,10.4662631 60.8518266,11.5882855 60.9783694,12.7537438 C61.1210127,14.0029731 61.1583045,15.2619888 61.0898502,16.5174709 C61.0623204,17.765112 60.8376946,19.000554 60.4242928,20.1780366 C60.1719099,20.909914 59.767614,21.5801493 59.2379368,22.1447587 C58.6004035,22.7964296 57.7647941,23.2183304 56.8618968,23.344426 C56.1991927,23.4507679 55.5227009,23.4361106 54.8652246,23.3011647 C53.947607,23.1153828 53.1323537,22.5938343 52.5790349,21.8386023 C52.4509151,21.6572379 52.3211314,21.4642263 52.1414309,21.21797 Z M58.3377704,15.3627288 C58.3377704,14.0815308 58.2695507,12.8103161 57.875208,11.577371 C57.6855241,10.9833611 57.4326123,10.4259567 56.9567388,9.99833611 C56.124792,9.25291181 54.4925125,9.22129784 53.5990017,10.1297837 C53.1648007,10.5860846 52.8389355,11.1343117 52.6455907,11.733777 C52.2046589,13.0016639 52.1464226,14.3227953 52.1464226,15.6455907 C52.1426452,16.2072057 52.1743221,16.7684992 52.2412646,17.3261231 C52.3094481,18.0279764 52.4717469,18.7174662 52.7237937,19.3760399 C53.2229617,20.5690516 54.093178,21.3344426 55.6023295,21.2396007 C56.1711798,21.2133554 56.7098338,20.9760629 57.1131448,20.5740433 C57.564284,20.0996738 57.8717786,19.5071843 58,18.8652246 C58.2569452,17.7167219 58.3709542,16.5408645 58.3394343,15.3643927 L58.3377704,15.3627288 Z" id="Shape"></path>
                <path d="M91.1414309,21.1314476 C91.0249584,21.1464226 91.0033278,21.2296173 90.9617304,21.2978369 C90.1164725,22.5574043 88.8951747,23.1647255 87.4276206,23.3643927 C86.7396357,23.4698955 86.0372913,23.4325126 85.3643927,23.2545757 C84.0449251,22.8868552 83.1414309,22.046589 82.733777,20.7420965 C82.270204,19.3463116 82.3293324,17.8296668 82.9001664,16.4742097 C83.3698768,15.3192238 84.3501166,14.4484461 85.5524126,14.1181364 C86.2730012,13.9113305 87.0161774,13.7934281 87.765391,13.7670549 C88.7886855,13.7154742 89.8103161,13.6422629 90.8319468,13.5806988 C90.953411,13.5806988 91.0449251,13.5590682 91.0432612,13.3993344 C91.0432612,12.7603993 91.0715474,12.1198003 90.9550749,11.4875208 C90.7637271,10.4492512 90.1846922,9.89184692 89.124792,9.72878536 C88.1418279,9.57414835 87.1375292,9.6239951 86.1747088,9.87520799 L85.1430948,10.1497504 C85.0473952,10.1758396 84.9501403,10.1958463 84.8519135,10.2096506 C84.6987274,10.2448409 84.5378304,10.2173473 84.4050215,10.1332871 C84.2722126,10.0492268 84.1785087,9.91557307 84.1447587,9.76206323 C84.0418425,9.35664269 83.9629477,8.94550057 83.9084859,8.53078203 C83.8799663,8.38467401 83.9118077,8.2332437 83.9967552,8.11099457 C84.0817027,7.98874544 84.2125202,7.90609081 84.359401,7.88186356 C85.2628239,7.63840969 86.1817459,7.45662657 87.109817,7.33777038 C87.8658235,7.25656683 88.6283529,7.25656683 89.3843594,7.33777038 C90.346998,7.41753406 91.2632056,7.78575675 92.0133111,8.39434276 C92.890183,9.12146423 93.3244592,10.0881864 93.4708819,11.1980033 C93.5747422,12.0736375 93.6192143,12.9552976 93.6039933,13.8369384 C93.6039933,15.6788686 93.6239601,17.5191348 93.6039933,19.3610649 C93.6086063,20.40492 93.7285804,21.4450675 93.9617304,22.4625624 C93.9847689,22.5585565 93.9975966,22.6567169 94,22.7554077 C94,23.0515807 93.8569052,23.2163062 93.562396,23.2229617 C93.0443705,23.2351636 92.526345,23.2351636 92.0083195,23.2229617 C91.7156688,23.2461417 91.4582683,23.0309017 91.4292845,22.7387687 C91.327787,22.2396007 91.2529118,21.7204659 91.1647255,21.2096506 C91.1597338,21.1946755 91.1530782,21.1747088 91.1414309,21.1314476 Z M91.0349418,16.9051581 C91.0349418,16.4858569 91.0349418,16.0732113 91.0349418,15.6472546 C91.0349418,15.4991681 91.0083195,15.437604 90.8302829,15.4492512 C90.0815308,15.4941764 89.3327787,15.5041597 88.5840266,15.5524126 C87.9995551,15.57201 87.4210755,15.6768314 86.8668885,15.8635607 C86.1195511,16.1124321 85.5422733,16.7127263 85.3227953,17.469218 C85.0953365,18.1993414 85.0654819,18.9767117 85.2362729,19.7221298 C85.4575707,20.6955075 86.1747088,21.2645591 87.1730449,21.3044925 C88.4475874,21.3560732 89.469218,20.8485857 90.2728785,19.8935108 C90.7875722,19.3215333 91.0612206,18.5727262 91.0366057,17.8036606 C91.0232945,17.5074875 91.0349418,17.2079867 91.0349418,16.9101498 L91.0349418,16.9051581 Z" id="Shape"></path>
                <path d="M45.1514143,21.1314476 C45.0748752,21.1464226 45.0532446,21.2146423 45.0183028,21.2678869 C44.2945092,22.3926789 43.234609,23.0083195 41.953411,23.2795341 C41.187873,23.4567107 40.3928882,23.4646606 39.6239601,23.3028286 C38.1480865,22.9700499 37.1830283,22.0748752 36.7404326,20.640599 C36.3987658,19.5265277 36.3768579,18.3388926 36.6772047,17.2129784 C37.1430948,15.4159734 38.3294509,14.3527454 40.1381032,13.9717138 C40.7212511,13.8554621 41.312656,13.7853614 41.906822,13.7620632 C42.8968386,13.7121464 43.8851913,13.6372712 44.875208,13.5823627 C45.0532446,13.5723794 45.0948419,13.4975042 45.0948419,13.3377704 C45.0983272,12.7321161 45.062757,12.1268672 44.9883527,11.5257903 C44.8452579,10.4475874 44.156406,9.89517471 43.1580699,9.73211314 C42.1760818,9.56984772 41.1707299,9.6197749 40.2096506,9.87853577 C39.8369384,9.97836938 39.4658902,10.078203 39.0915141,10.171381 C38.5490849,10.3078203 38.2595674,10.1231281 38.1397671,9.56905158 C38.078203,9.27787022 38.014975,8.98835275 37.9733777,8.69384359 C37.9001664,8.21464226 38.0515807,7.95341098 38.5224626,7.8452579 C39.5108153,7.61896839 40.4941764,7.36938436 41.5091514,7.30449251 C42.6738769,7.2296173 43.8519135,7.25291181 44.953411,7.73044925 C46.422629,8.36439268 47.2545757,9.48419301 47.4891847,11.0665557 C47.5964558,11.8415662 47.6437399,12.6237011 47.6306156,13.40599 C47.6306156,14.7836938 47.6306156,16.1630616 47.6306156,17.5407654 C47.6306156,18.4675541 47.6655574,19.3926789 47.6738769,20.3178037 C47.6738769,20.9950083 47.8618968,21.6489185 47.9800333,22.3061564 C48.0107395,22.4461186 48.0329652,22.5878075 48.046589,22.7304493 C48.0711712,22.8587528 48.0347938,22.9911982 47.9481245,23.0889455 C47.8614553,23.1866928 47.734317,23.2386636 47.6039933,23.2296173 C47.0865225,23.2429285 46.5673877,23.2429285 46.0499168,23.2296173 C45.703827,23.2196339 45.5124792,23.0216306 45.4442596,22.6439268 C45.3693844,22.2212978 45.3078203,21.797005 45.2396007,21.3727121 C45.2229617,21.2861897 45.2396007,21.1913478 45.1514143,21.1314476 Z M45.0915141,16.9717138 C45.0915141,16.4825291 45.0915141,16.0748752 45.0915141,15.6672213 C45.0915141,15.452579 45.0765391,15.4492512 44.8618968,15.4592346 L42.750416,15.5507488 C42.2450496,15.5689993 41.7430578,15.6409514 41.2529118,15.765391 C40.156406,16.0499168 39.4858569,16.7437604 39.266223,17.8652246 C39.1979774,18.3115816 39.1773402,18.7639254 39.2046589,19.2146423 C39.2136309,19.4992629 39.2698606,19.7804115 39.3710483,20.046589 C39.5790489,20.6682172 40.1112527,21.1256697 40.7570715,21.2379368 C41.5955648,21.420853 42.4722817,21.2749321 43.2063228,20.8302829 C44.2046589,20.2462562 44.8702163,19.4043261 45.0648918,18.2396007 C45.1414309,17.8036606 45.078203,17.3410982 45.0915141,16.9717138 Z" id="Shape"></path>
                <path d="M69.3227953,16.0066556 L65.4858569,16.0066556 C65.4093178,16.0066556 65.3311148,16.0066556 65.2545757,16.0066556 C65.1281198,16.0066556 65.0765391,16.0582363 65.0881864,16.1846922 C65.156406,17.4292845 65.3544093,18.640599 66.0549085,19.7088186 C66.4918393,20.3557307 67.1640854,20.8064818 67.9284526,20.9650582 C68.6836359,21.1284981 69.4607635,21.165049 70.2279534,21.0732113 C70.9165544,20.9905406 71.5960756,20.8446106 72.2579035,20.6372712 C72.2895175,20.6289517 72.3211314,20.6156406 72.3527454,20.6073211 C72.8652246,20.4792013 73.1131448,20.6073211 73.2978369,21.1064892 C73.3810316,21.3344426 73.4642263,21.5590682 73.5440932,21.7903494 C73.687188,22.2412646 73.5707155,22.4925125 73.1331115,22.6888519 C72.7913108,22.84296 72.4387424,22.9719755 72.078203,23.0748752 C70.8947389,23.3924174 69.6634128,23.4922089 68.4442596,23.3693844 C67.5519988,23.3081639 66.6798242,23.0759982 65.875208,22.6855241 C64.741189,22.1183425 63.8305839,21.1866423 63.2895175,20.0399334 C62.821273,19.0532298 62.5317098,17.9913102 62.4342762,16.9034942 C62.3346001,15.9833672 62.319006,15.0560697 62.3876872,14.1331115 C62.5008319,12.5757072 62.8635607,11.0848586 63.7304493,9.76039933 C64.562396,8.49750416 65.6938436,7.65557404 67.2013311,7.38269551 C68.6023295,7.12978369 69.9517471,7.29950083 71.1946755,8.02163062 C72.1281198,8.56572379 72.7620632,9.39600666 73.2063228,10.3710483 C73.6906033,11.4730682 73.9724185,12.6533098 74.0382696,13.8552413 C74.0715474,14.3061564 74.093178,14.7570715 74.0916038,15.2079867 C74.0916038,15.7321131 73.8202995,16.0049917 73.2995008,16.0066556 C71.9706045,16.0088741 70.6450361,16.0088741 69.3227953,16.0066556 Z M68.2196339,13.8985025 L68.78203,13.8985025 C69.5640599,13.8985025 70.3477537,13.8985025 71.1297837,13.8985025 C71.3810316,13.8985025 71.3893511,13.8985025 71.3777038,13.6372712 C71.3660566,13.3760399 71.3410982,13.1547421 71.3094842,12.9134775 C71.2417763,12.2106159 71.0401444,11.5272135 70.7154742,10.9001664 C70.4524006,10.3863403 70.0483921,9.95809132 69.5507488,9.6655574 C68.4360636,9.1027172 67.0796441,9.39535985 66.296173,10.3677205 C65.5207987,11.3327787 65.2146423,12.4708819 65.0965058,13.672213 C65.0748752,13.890183 65.0965058,13.8985025 65.3427621,13.8985025 C66.296173,13.9001664 67.2562396,13.8985025 68.2196339,13.8985025 Z" id="Shape"></path>
                <path d="M3.13144759,12.1464226 C3.09772872,13.4894276 3.23470925,14.8312776 3.5391015,16.1397671 C3.80033278,17.1963394 4.17803661,18.2046589 4.87021631,19.0682196 C5.68911318,20.1330967 6.93157268,20.7880461 8.27287854,20.8618968 C9.3577371,20.9450915 10.3677205,20.6638935 11.3577371,20.2762063 C11.8252912,20.093178 12.0399334,20.1613977 12.2628952,20.608985 C12.4425957,20.9750416 12.6156406,21.344426 12.7836938,21.7154742 C12.8645211,21.8505356 12.8828988,22.0139817 12.8340829,22.1636201 C12.785267,22.3132584 12.6740414,22.4344245 12.5291181,22.4958403 C12.3339938,22.5981197 12.1334789,22.6897678 11.9284526,22.7703827 C10.547421,23.3627288 9.09983361,23.4908486 7.62063228,23.3660566 C6.45019798,23.285479 5.3160248,22.9260579 4.31281198,22.3178037 C3.25575153,21.6522126 2.3854126,20.7286227 1.78369384,19.6339434 C1.09364627,18.3718234 0.635482372,16.9962046 0.430948419,15.5723794 C0.214529638,14.2199216 0.129275069,12.8497191 0.176372712,11.4808652 C0.234608985,9.50915141 0.577371048,7.58735441 1.43427621,5.78535774 C2.44925125,3.66056572 4.00998336,2.12479201 6.32279534,1.43760399 C7.43746057,1.12558209 8.60209704,1.03290844 9.75207987,1.16472546 C10.4681781,1.21183316 11.1718061,1.37537607 11.8352745,1.64891847 C12.0473708,1.74338696 12.2515715,1.854668 12.4459235,1.98169717 C12.8053245,2.21464226 12.890183,2.53410982 12.6955075,2.921797 C12.5291181,3.23627288 12.3760399,3.55074875 12.2079867,3.86023295 C11.9584027,4.31946755 11.7371048,4.39434276 11.2645591,4.19301165 C10.8771006,4.00553355 10.4718684,3.85726424 10.0549085,3.75041597 C8.19467554,3.33777038 6.48918469,3.61896839 5.08818636,4.99168053 C4.36605657,5.69051581 3.95341098,6.58069884 3.67221298,7.53577371 C3.42146999,8.43770016 3.26149584,9.36242874 3.19467554,10.296173 C3.13976705,10.9051581 3.14642263,11.5224626 3.13144759,12.1464226 Z" id="Path"></path>
                <path d="M24.6589018,15.3377704 C24.7006016,16.6686184 24.4969877,17.9957752 24.0582363,19.2529118 C23.6613483,20.4432797 22.9201303,21.489092 21.9284526,22.2579035 C21.1346583,22.8610913 20.1944762,23.2418736 19.2046589,23.3610649 C18.3395627,23.4802873 17.4590458,23.4156518 16.6206323,23.171381 C15.0948419,22.718802 13.9800333,21.7487521 13.2063228,20.3760399 C12.6770812,19.3946594 12.3383425,18.3219868 12.2079867,17.2146423 C12.0872592,16.3516831 12.0499265,15.4791022 12.0965058,14.608985 C12.1680532,13.2579035 12.4076539,11.9467554 13.0049917,10.7088186 C13.797005,9.07986689 15.0183028,7.9234609 16.8019967,7.47420965 C19.5241265,6.78868552 22.2512479,7.84026622 23.6239601,10.4608985 C24.0838776,11.365987 24.3887172,12.3418113 24.5257903,13.3477537 C24.6260109,14.0061727 24.6705391,14.6718693 24.6589018,15.3377704 Z M21.9450915,15.3527454 C21.9450915,14.8685524 21.9317804,14.3843594 21.8868552,13.9018303 C21.8365227,13.1986047 21.6944417,12.5049809 21.4642263,11.8386023 C20.9833611,10.5374376 20.1547421,9.62895175 18.687188,9.49084859 C17.9464293,9.40236903 17.1990093,9.58952016 16.5873544,10.0166389 C15.9400998,10.4725458 15.5574043,11.1198003 15.2911814,11.8469218 C14.9351082,12.8219634 14.8485857,13.843594 14.8086522,14.8652246 C14.7656531,15.8342508 14.8287008,16.8050741 14.9966722,17.7603993 C15.1114057,18.5462554 15.395248,19.2978697 15.828619,19.9633943 C16.953411,21.5890183 19.1863561,21.5174709 20.2878536,20.6289517 C20.8971007,20.1130642 21.3342399,19.4233943 21.5407654,18.6522463 C21.875208,17.5757072 21.9484193,16.4725458 21.9450915,15.3527454 Z" id="Shape"></path>
                <path d="M25.921797,10.7836938 C25.921797,7.52024404 25.921797,4.2562396 25.921797,0.991680532 C25.921797,0.925124792 25.921797,0.858569052 25.921797,0.793677205 C25.9317804,0.322795341 26.1747088,0.0499168053 26.6455907,0.0232945092 C27.0083195,0.00332778702 27.374376,0.00665557404 27.7371048,0.0232945092 C28.2362729,0.0432612313 28.4975042,0.344425957 28.4958403,0.828618968 C28.4825291,3.76206323 28.4958403,6.69550749 28.4958403,9.62895175 C28.4958403,13.0476983 28.4958403,16.4658902 28.4958403,19.8835275 C28.4816651,20.1921458 28.5136312,20.5011516 28.5906822,20.8003328 C28.6955075,21.1480865 28.8236273,21.2396007 29.1863561,21.2479201 C29.4289546,21.241852 29.6700882,21.2083612 29.9051581,21.1480865 C30.2562396,21.0765391 30.4875208,21.2079867 30.5840266,21.5524126 C30.6688852,21.8602329 30.7387687,22.1730449 30.7953411,22.4858569 C30.8523954,22.770968 30.6807091,23.052041 30.4009983,23.1314476 C30.1638305,23.220904 29.917872,23.2850428 29.6672213,23.3227953 C29.1151629,23.4317749 28.5486271,23.4464025 27.9916805,23.3660566 C26.8618968,23.1747088 26.1397671,22.4342762 25.985025,21.3011647 C25.9458087,21.0060823 25.9269068,20.7086546 25.9284526,20.4109817 C25.9240155,17.2018857 25.921797,13.9927898 25.921797,10.7836938 Z" id="Path"></path>
                <path d="M31.6688852,10.8153078 C31.6688852,7.56184138 31.6688852,4.30892956 31.6688852,1.05657238 C31.6688852,0.946755408 31.6688852,0.835274542 31.6688852,0.723793677 C31.6541812,0.389065344 31.8948593,0.0973778577 32.2262895,0.0482529118 C32.3354466,0.0237732426 32.4472542,0.0131515179 32.5590682,0.0166389351 L33.2778702,0.0166389351 C34.0033278,0.0166389351 34.2329451,0.244592346 34.2329451,0.960066556 C34.2329451,6.08818636 34.2329451,11.2157515 34.2329451,16.3427621 C34.2329451,17.577371 34.2329451,18.8125347 34.2329451,20.0482529 C34.2260813,20.2907521 34.2518245,20.5330743 34.3094842,20.7687188 C34.4076539,21.1264559 34.5507488,21.234609 34.9201331,21.2429285 C35.1513113,21.2391024 35.3813016,21.2089581 35.6056572,21.1530782 C36,21.0732113 36.21797,21.1963394 36.3194676,21.5840266 C36.3976705,21.8818636 36.4575707,22.1846922 36.515807,22.4875208 C36.5757214,22.720603 36.4648212,22.9638904 36.249584,23.0715474 C36.202757,23.1013877 36.15247,23.1254137 36.0998336,23.1430948 C35.2714868,23.4252387 34.3844605,23.4894163 33.5241265,23.3294509 C32.5657238,23.124792 31.9184692,22.4193012 31.733777,21.4292845 C31.6789085,21.0921978 31.6555132,20.7507381 31.6638935,20.4093178 C31.6672213,17.2124237 31.6688852,14.0144204 31.6688852,10.8153078 Z" id="Path"></path>
                <path d="M78.3477537,9.59234609 C78.462151,9.48039812 78.5541939,9.34769823 78.6189684,9.20133111 C79.0412191,8.45678541 79.6850597,7.8623815 80.4608985,7.50083195 C81.0497869,7.23313538 81.7185344,7.19981699 82.3311148,7.40765391 C82.5543927,7.47395238 82.7537432,7.60338576 82.9051581,7.78036606 C83.0504241,7.93730513 83.1072895,8.15664314 83.0565724,8.36439268 C82.9456461,8.8025513 82.8347199,9.23960067 82.7237937,9.67554077 C82.7031831,9.75004122 82.6770429,9.82290013 82.6455907,9.89351082 C82.4891847,10.2579035 82.3643927,10.3244592 81.9800333,10.2396007 C81.6788686,10.1747088 81.3826955,10.0915141 81.0798669,10.0332779 C80.2762063,9.87687188 79.6772047,10.1996672 79.2163062,10.8169717 C78.8205947,11.377961 78.5629126,12.0244467 78.4642263,12.703827 C78.3738035,13.3368641 78.337067,13.9764133 78.3544093,14.6156406 C78.3410982,17.1747088 78.3544093,19.733777 78.3544093,22.2911814 C78.3544093,22.4009983 78.3544093,22.5124792 78.3544093,22.6239601 C78.3420833,22.9478431 78.0856448,23.2093239 77.7620632,23.2279534 C77.2995008,23.2479201 76.8352745,23.2479201 76.3727121,23.2279534 C76.0241407,23.2153158 75.7497428,22.9261255 75.7554077,22.577371 C75.7554077,22.5008319 75.7554077,22.422629 75.7554077,22.3460899 C75.7554077,17.6805324 75.7554077,13.0155297 75.7554077,8.35108153 C75.7554077,7.6655574 75.9767055,7.43926789 76.6572379,7.43094842 C76.8552413,7.43094842 77.0549085,7.43094842 77.2512479,7.44425957 C77.5580338,7.46054275 77.8138129,7.6846932 77.8702163,7.98668885 C77.9966722,8.46589018 78.1236828,8.94509151 78.2512479,9.42429285 C78.2645591,9.48419301 78.2529118,9.55241265 78.3477537,9.59234609 Z" id="Path"></path>
                <path d="M97.8552413,4.62562396 C97.2919309,4.62829812 96.7509433,4.40559254 96.3527746,4.00711126 C95.9546058,3.60862997 95.7323248,3.0674678 95.7354086,2.50415973 C95.7331436,1.32653426 96.6859353,0.370017823 97.8635607,0.36771632 C99.0411862,0.365423108 99.9977026,1.3182148 100,2.49584027 C100.006857,3.06537851 99.7826023,3.61338148 99.3784403,4.01472159 C98.9742782,4.4160617 98.4247175,4.63647149 97.8552413,4.62562396 Z M96.1048253,2.49584027 C96.0906727,2.96478039 96.269009,3.41909103 96.5983851,3.75318155 C96.9277613,4.08727206 97.3794918,4.27204628 97.8485857,4.26455907 C98.3183565,4.27622879 98.7729185,4.09762242 99.1090923,3.76928118 C99.4452662,3.44093994 99.6345372,2.99071403 99.6339434,2.52079867 C99.6577065,1.87794519 99.3299106,1.27305317 98.7783614,0.941966065 C98.2268121,0.610878956 97.538829,0.606013446 96.9826521,0.929266565 C96.4264752,1.25251968 96.0901569,1.85271499 96.1048253,2.49584027 Z" id="Shape"></path>
                <path d="M98.1381032,2.66222962 C98.408976,2.95247103 98.639045,3.27826207 98.8219634,3.63061564 C98.4409318,3.718802 98.4409318,3.718802 98.2595674,3.41430948 C98.1630616,3.24792013 98.0665557,3.09484193 97.9633943,2.93843594 C97.9046848,2.84411135 97.8171756,2.77118704 97.7138103,2.73044925 C97.4292845,2.62396007 97.3111481,2.70382696 97.3078203,3.00665557 C97.3078203,3.17304493 97.3078203,3.33943428 97.3078203,3.50582363 C97.3078203,3.62895175 97.2612313,3.68552413 97.1414309,3.68718802 C97.0216306,3.68885191 96.9334443,3.65723794 96.9351082,3.50415973 C96.9351082,2.85524126 96.9351082,2.2046589 96.9351082,1.55574043 C96.9351082,1.42429285 97,1.38935108 97.1198003,1.38935108 C97.4276206,1.38935108 97.7371048,1.38935108 98.0449251,1.40099834 C98.3548702,1.38640924 98.6302719,1.59717583 98.6971714,1.90016639 C98.7408666,2.20586473 98.5625216,2.4998552 98.2712146,2.60232945 C98.2249053,2.61767319 98.1802995,2.63774582 98.1381032,2.66222962 L98.1381032,2.66222962 Z M97.7004992,1.70881864 L97.7004992,1.70881864 C97.6135355,1.70253355 97.5262316,1.70253355 97.4392679,1.70881864 C97.2296173,1.74043261 97.312812,1.91347754 97.3161398,2.02329451 C97.3194676,2.13311148 97.2163062,2.34109817 97.4342762,2.37271215 C97.6190947,2.39507315 97.8061205,2.39171341 97.9900166,2.36272879 C98.1622918,2.35513611 98.3002276,2.21720029 98.3078203,2.04492512 C98.2990826,1.86101927 98.149142,1.71544589 97.9650582,1.71214642 C97.8763924,1.7069827 97.7875011,1.7069827 97.6988353,1.71214642 L97.7004992,1.70881864 Z" id="Shape"></path>
            </g>
        </g>
    </g>
</svg>