<?xml version="1.0" encoding="UTF-8"?>
<svg width="99.1714278px" height="31.749691px" viewBox="0 0 99.1714278 31.749691" version="1.1" xmlns="http://www.w3.org/2000/svg" xmlns:xlink="http://www.w3.org/1999/xlink">
    <title>Group 12</title>
    <g id="11082023" stroke="none" stroke-width="1" fill="none" fill-rule="evenodd">
        <g id="Offer-Documents-Template-Ops-Consultant" transform="translate(-16, -9)">
            <g id="Group-12" transform="translate(16, 9)">
                <g id="Group-40" transform="translate(49, 20.9102)">
                    <path d="M40.5767881,0 L40.5767881,1.68803523 L42.536647,1.68803523 L42.536647,3.06558984 L40.5767881,3.06558984 L40.5767881,6.44176862 C40.5767881,6.84693174 40.6506597,7.12599597 40.7984029,7.27906963 C40.9459308,7.43225162 41.1897286,7.50862595 41.5299041,7.50862595 L42.5099412,7.50862595 L42.5099412,8.81858115 L41.2345254,8.81858115 C40.8675364,8.81858115 40.5521284,8.77806484 40.2881935,8.69703222 C40.024151,8.61610792 39.807059,8.48101744 39.6371328,8.2918691 C39.4670988,8.10282908 39.3418617,7.85084796 39.2613137,7.53560071 C39.1806579,7.22057014 39.1404916,6.82894857 39.1404916,6.360736 L39.1404916,3.06558984 L38.537,3.065 L34.9249878,3.07320662 C34.2909056,3.07320662 33.8289203,3.24949964 33.5394744,3.60208569 C33.2498073,3.95478338 33.1051397,4.52999659 33.1051397,5.3279486 C33.1051397,6.12601227 33.2498073,6.69888085 33.5394744,7.04688931 C33.8289203,7.39478612 34.2909056,7.56873452 34.9249878,7.56873452 L38.5374761,7.56873452 L38.5374761,9.00230159 L34.7872881,9.00230159 C33.8127724,9.00230159 33.0430918,8.70085057 32.4778041,8.09761359 C31.9124058,7.4945999 31.6298172,6.57137824 31.6298172,5.3279486 C31.6298172,4.08463062 31.9124058,3.16140896 32.4778041,2.55817197 C33.0430918,1.95515828 33.8127724,1.65348397 34.7872881,1.65348397 L38.5374761,1.65348397 L38.537,1.688 L39.1404916,1.68803523 L39.1404916,0 L40.5767881,0 Z M29.2015905,1.65348397 C30.0562685,1.65348397 30.6748979,1.85076391 31.0568218,2.24510052 C31.4388553,2.63954877 31.6298172,3.19387528 31.6298172,3.90830334 C31.6298172,4.58566466 31.4432326,5.10761358 31.0705011,5.47403848 C30.6975507,5.84068667 30.0699478,6.02378747 29.1879113,6.02378747 L25.7637275,6.02378747 L25.7637275,6.5526585 C25.7637275,6.84975072 25.8477727,7.09325245 26.0160819,7.283387 C26.1842816,7.4736332 26.4684812,7.5687563 26.8687901,7.5687563 L31.2751423,7.5687563 L31.2751423,9.00230159 L26.8687901,9.00230159 C26.4138737,9.00230159 26.0297611,8.94201231 25.7160144,8.82132208 C25.4022676,8.70074351 25.143019,8.53137527 24.9383777,8.31332901 C24.7337365,8.0953944 24.585782,7.8400581 24.4950614,7.5477667 C24.4040125,7.25558694 24.3585974,6.93326254 24.3585974,6.58057021 L24.3585974,4.075327 C24.3585974,3.73212464 24.4040125,3.41203318 24.4950614,3.11494097 C24.585782,2.81807205 24.7337365,2.56061446 24.9383777,2.34245655 C25.143019,2.12463359 25.4022676,1.9551537 25.7160144,1.83446348 C26.0297611,1.71399655 26.4138737,1.65348397 26.8687901,1.65348397 L29.2015905,1.65348397 Z M29.1879113,3.07318505 L26.8687901,3.07318505 C26.4684812,3.07318505 26.1842816,3.17065274 26.0160819,3.36547645 C25.8477727,3.56030017 25.7637275,3.80179226 25.7637275,4.0891712 L25.7637275,4.86857772 L29.1469831,4.86857772 C29.53799,4.86857772 29.8131066,4.78986671 29.9723328,4.63199809 C30.1313401,4.47435277 30.211008,4.26099567 30.211008,3.99181517 C30.211008,3.71336797 30.1292609,3.4907442 29.9654385,3.32372054 C29.801835,3.15669688 29.5425863,3.07318505 29.1879113,3.07318505 Z M19.4381346,1.65348397 C20.6108581,1.65348397 21.4816985,1.93428001 22.0507605,2.49553715 C22.6197179,3.05701759 22.9043535,3.84804739 22.9043535,4.86862657 L22.9043535,9.00230159 L21.5100262,9.00230159 L21.5100262,4.86862657 C21.5100262,4.28403489 21.3470637,3.83866892 21.0213479,3.53252866 C20.695632,3.22627675 20.1678594,3.07320662 19.4381346,3.07320662 L17.183838,3.07320662 C17.070841,3.07320662 17.0143947,3.14276365 17.0143947,3.28198937 L17.0143947,9.00230159 L15.6331337,9.00230159 L15.6331337,2.7947552 C15.6331337,2.3587677 15.7068274,2.05954966 15.854633,1.89710105 C16.0022295,1.73476409 16.2498614,1.65348397 16.597424,1.65348397 L19.4381346,1.65348397 Z M6.90766988,1.65348397 L6.90766988,3.07320662 L3.29528647,3.07320662 C2.66109258,3.07320662 2.19921716,3.24949964 1.90966021,3.60208569 C1.62010325,3.95478338 1.47532477,4.52999659 1.47532477,5.3279486 C1.47532477,6.12601227 1.62010325,6.69888085 1.90966021,7.04688931 C2.19921716,7.39478612 2.66109258,7.56873452 3.29528647,7.56873452 L6.90766988,7.56873452 L6.90766988,9.00230159 L3.15747594,9.00230159 C2.18295862,9.00230159 1.41327685,8.70085057 0.847988231,8.09761359 C0.282699611,7.4945999 0,6.57137824 0,5.3279486 C0,4.08463062 0.282699611,3.16140896 0.847988231,2.55817197 C1.41327685,1.95515828 2.18295862,1.65348397 3.15747594,1.65348397 L6.90766988,1.65348397 Z" id="Combined-Shape" fill="#FFFFFF"></path>
                    <path d="M11.2704018,1.65348397 C11.6719973,1.65348397 11.9975238,1.9824844 11.9975238,2.38836573 C11.9975238,2.79424706 11.6719973,3.12324749 11.2704018,3.12324749 C10.8688062,3.12324749 10.5432798,2.79424706 10.5432798,2.38836573 C10.5432798,1.9824844 10.8688062,1.65348397 11.2704018,1.65348397" id="Fill-3" fill="#54C0EB"></path>
                    <path d="M10.4388521,2.65243951 C10.5082304,2.63892114 10.5637331,2.5578109 10.5359817,2.49010447 C10.5221061,2.42251261 10.4388521,2.36843911 10.3694738,2.39547586 C8.84244507,2.74706812 7.74591477,4.01836801 7.63479186,5.54651699 C7.63479186,5.6277418 7.69029452,5.68181529 7.75979044,5.69533366 L7.7736661,5.69533366 C7.84304443,5.69533366 7.91242275,5.64126017 7.91242275,5.57355374 C8.00967,4.16707012 9.02294631,2.9905134 10.4388521,2.65243951" id="Fill-26" fill="#8DD7F1"></path>
                    <path d="M11.2704018,1.65348397 C11.6719973,1.65348397 11.9975238,1.9824844 11.9975238,2.38836573 C11.9975238,2.79424706 11.6719973,3.12324749 11.2704018,3.12324749 C10.8688062,3.12324749 10.5432798,2.79424706 10.5432798,2.38836573 C10.5432798,1.9824844 10.8688062,1.65348397 11.2704018,1.65348397 Z" id="Stroke-5" stroke="#FFFFFF" stroke-width="0.5"></path>
                    <path d="M38.9726359,10.7760369 C37.388372,10.7760369 35.8899196,10.7179046 34.5383052,10.6119322 C36.0673809,10.7602173 37.8350547,10.839506 39.7187227,10.839506 C45.4924405,10.839506 50.1714278,10.0617715 50.1714278,9.10401731 C50.1714278,8.41090824 47.7126352,7.8129075 44.1529433,7.53253807 C47.3029649,7.83406386 49.4252309,8.39499332 49.4252309,9.04054823 C49.4252309,9.99820711 44.7463538,10.7760369 38.9726359,10.7760369" id="Fill-7" fill="#FFFFFF" opacity="0.756115141"></path>
                    <path d="M39.6574863,10.4157376 C38.4739576,10.4157376 37.3574314,10.3591844 36.3561101,10.2652676 C37.4908899,10.3968866 38.8078771,10.4720651 40.2097924,10.4720651 C44.5065875,10.4720651 47.9900618,9.78270251 47.9900618,8.93034013 C47.9900618,8.30972188 46.1572756,7.77703773 43.5111686,7.53253807 C45.8537422,7.79577593 47.4316348,8.29719212 47.4316348,8.87378688 C47.4316348,9.71994082 43.9481604,10.4157376 39.6574863,10.4157376" id="Fill-9" fill="#FFFFFF" opacity="0.756115141"></path>
                    <path d="M40.6553988,9.34258334 C40.0247992,9.34258334 39.4342639,9.35873661 38.9010371,9.31008216 C39.5031373,9.3749872 40.2025071,9.36963521 40.9478268,9.36963521 C43.2297362,9.36963521 45.0815739,8.99129822 45.0815739,8.57530269 C45.0815739,8.27812132 44.106917,8.01889042 42.7021885,7.89997895 C43.9462468,8.0295944 44.7891459,8.27276933 44.7891459,8.54834812 C44.7891459,8.96434366 42.9373081,9.34258334 40.6553988,9.34258334" id="Fill-11" fill="#FFFFFF" opacity="0.756115141"></path>
                    <path d="M12.924572,2.77542674 C12.8598832,2.73467724 12.7821469,2.76184357 12.7433336,2.81617625 C12.7045203,2.88409209 12.7303959,2.96570622 12.7821469,3.00645573 C13.7141047,3.61792855 14.2706479,4.65070983 14.2706479,5.79215647 C14.2706479,6.07751813 14.2318346,6.34929662 14.1671458,6.63465828 C14.154208,6.70257412 14.1930213,6.78407314 14.2577102,6.79765631 L14.2965235,6.79765631 C14.3482745,6.79765631 14.4000256,6.7569068 14.4260108,6.70257412 C14.5036374,6.40362929 14.5424507,6.10468447 14.5424507,5.79215647 C14.5295129,4.55551254 13.9341564,3.42764907 12.924572,2.77542674" id="Fill-22" fill="#8DD7F1"></path>
                    <path d="M12.5482963,8.58812283 C12.1609025,8.71895014 11.7466866,8.78431763 11.3192292,8.78431763 C10.4240247,8.78431763 9.55564242,8.4681901 8.95446337,7.93417093 C8.90104535,7.8905926 8.82091832,7.8905926 8.76738713,7.92327635 C8.71396911,7.96685467 8.71396911,8.03231449 8.75403263,8.07589282 C9.40874287,8.6643849 10.3438977,9.00230159 11.3192292,9.00230159 C11.7733956,9.00230159 12.2276751,8.92603952 12.6417779,8.78431763 C12.7086636,8.76252846 12.7487271,8.69706864 12.7086636,8.64259573 C12.6953091,8.58812283 12.6150689,8.56633366 12.5482963,8.58812283" id="Fill-24" fill="#8DD7F1"></path>
                    <path d="M8.36191385,6.43021542 C8.76350938,6.43021542 9.08903583,6.75921586 9.08903583,7.16509719 C9.08903583,7.57097852 8.76350938,7.89997895 8.36191385,7.89997895 C7.96031831,7.89997895 7.63479186,7.57097852 7.63479186,7.16509719 C7.63479186,6.75921586 7.96031831,6.43021542 8.36191385,6.43021542" id="Fill-28" fill="#54C0EB"></path>
                    <path d="M8.36191385,6.43021542 C8.76350938,6.43021542 9.08903583,6.75921586 9.08903583,7.16509719 C9.08903583,7.57097852 8.76350938,7.89997895 8.36191385,7.89997895 C7.96031831,7.89997895 7.63479186,7.57097852 7.63479186,7.16509719 C7.63479186,6.75921586 7.96031831,6.43021542 8.36191385,6.43021542 Z" id="Stroke-30" stroke="#FFFFFF" stroke-width="0.5"></path>
                    <path d="M14.1788897,6.43021542 C14.5804852,6.43021542 14.9060117,6.75921586 14.9060117,7.16509719 C14.9060117,7.57097852 14.5804852,7.89997895 14.1788897,7.89997895 C13.7772942,7.89997895 13.4517677,7.57097852 13.4517677,7.16509719 C13.4517677,6.75921586 13.7772942,6.43021542 14.1788897,6.43021542" id="Fill-32" fill="#54C0EB"></path>
                    <path d="M14.1788897,6.43021542 C14.5804852,6.43021542 14.9060117,6.75921586 14.9060117,7.16509719 C14.9060117,7.57097852 14.5804852,7.89997895 14.1788897,7.89997895 C13.7772942,7.89997895 13.4517677,7.57097852 13.4517677,7.16509719 C13.4517677,6.75921586 13.7772942,6.43021542 14.1788897,6.43021542 Z" id="Stroke-34" stroke="#FFFFFF" stroke-width="0.5"></path>
                    <path d="M11.2704018,4.9604519 C11.6719973,4.9604519 11.9975238,5.28945233 11.9975238,5.69533366 C11.9975238,6.10121499 11.6719973,6.43021542 11.2704018,6.43021542 C10.8688062,6.43021542 10.5432798,6.10121499 10.5432798,5.69533366 C10.5432798,5.28945233 10.8688062,4.9604519 11.2704018,4.9604519" id="Fill-36" fill="#DD352E"></path>
                    <path d="M11.2704018,4.9604519 C11.6719973,4.9604519 11.9975238,5.28945233 11.9975238,5.69533366 C11.9975238,6.10121499 11.6719973,6.43021542 11.2704018,6.43021542 C10.8688062,6.43021542 10.5432798,6.10121499 10.5432798,5.69533366 C10.5432798,5.28945233 10.8688062,4.9604519 11.2704018,4.9604519 Z" id="Stroke-38" stroke="#FFFFFF" stroke-width="0.5" stroke-linecap="round"></path>
                </g>
                <path d="M55.2570607,0.00168981837 L59.1199855,0.822941547 C61.8811488,1.40930852 64.7420113,2.75102431 64.7420113,7.28142736 C64.7420113,11.8118304 61.8794589,11.9503955 59.1199855,11.3640285 L55.2570607,10.5427768 L55.2570607,0.00168981837 L55.2570607,0.00168981837 Z M59.1199855,8.97124573 C60.8520494,9.33962614 62.1380011,9.55423307 62.1380011,6.72716694 C62.1380011,3.9001008 60.836841,3.56382694 59.1199855,3.19882618 L57.8610708,2.93183487 L57.8610708,8.70256461 L59.1199855,8.96955591 L59.1199855,8.97124573 Z M72.7838569,3.72773933 L72.7838569,6.10531377 L70.4806344,5.61526645 L70.4806344,11.3859962 L72.7838569,11.8760435 L72.7838569,14.2688263 L65.5869204,12.7395407 L65.5869204,10.3467579 L67.8901429,10.8368052 L67.8901429,5.06607548 L65.5869204,4.57602815 L65.5869204,2.1984537 L72.7838569,3.72773933 Z M78.8773419,4.81429254 C82.1538997,5.51049771 84.1563345,8.29869802 84.1563345,11.4096536 C84.1563345,14.5206093 82.1538997,16.4706597 78.8773419,15.7744545 C75.5855757,15.0748697 73.5696224,12.2832897 73.5696224,9.15881557 C73.5696224,6.0343414 75.5872656,4.11470773 78.8773419,4.81429254 L78.8773419,4.81429254 Z M78.8773419,13.3073197 C80.6229243,13.6790797 81.481352,12.7547491 81.481352,10.8401849 C81.481352,8.92562064 80.6094058,7.64980777 78.8773419,7.28142736 C77.1317595,6.90966732 76.2581235,7.83061833 76.2581235,9.72997418 C76.2581235,11.62933 77.1317595,12.9355596 78.8773419,13.3073197 Z M85.4591845,6.42299963 L90.366417,7.46561756 L93.1985526,17.7414031 L93.1985526,8.0671929 L95.8025627,8.61976351 L95.8025627,19.1608505 L90.8953302,18.1182326 L88.0631946,7.84244706 L88.0631946,17.5166572 L85.4591845,16.9640866 L85.4591845,6.42299963 Z M3.23431236,10.6830317 L7.99791035,9.67083054 L11.2170143,19.5275411 L8.45585113,20.1139081 L7.51124266,17.1296888 L3.67704478,17.9441813 L2.73243631,21.3288875 L0,21.910185 L3.23262254,10.6813419 L3.23431236,10.6830317 Z M6.79644949,14.904198 L5.59498863,11.1375929 L4.39352776,15.4145232 L6.79644949,14.904198 Z M16.4943171,18.6133494 C12.93218,19.370388 11.4299315,18.104714 11.4299315,15.3688981 L14.1184325,14.7977395 C14.1184325,16.2932287 14.6760726,16.7275121 16.5500811,16.3287149 C17.8225144,16.058344 18.3666359,15.6730654 18.3666359,15.015726 C18.3666359,14.6422762 18.0810566,14.4192202 17.5082081,14.3904932 L14.131951,14.1809558 C12.3863687,14.0592888 11.8422471,13.1129906 11.8422471,11.7814137 C11.8422471,9.73335382 13.3022502,8.33080457 15.9485058,7.76809505 C19.0966374,7.09892698 20.65465,8.32235548 20.65465,10.6103696 L17.9796675,11.1781485 C17.9796675,10.0425906 17.3645736,9.694488 15.9907512,9.98682657 C15.0326242,10.1912946 14.5307482,10.5512259 14.5307482,11.1494216 C14.5307482,11.4485195 14.6879013,11.6681959 15.3182035,11.7138209 L18.5947614,11.8692842 C20.2676815,11.9470159 21.0416184,12.7851658 21.0416184,14.3245903 C21.0416184,16.3287149 19.7252498,17.9239035 16.4926273,18.6116595 L16.4943171,18.6133494 Z M21.8020366,11.9977104 C21.8020366,8.88675481 23.8484067,6.09010541 27.1520016,5.38714097 C30.041591,4.7737369 31.957845,5.99547558 32.2586327,8.57751805 L29.5836502,9.14529702 C29.3690433,8.05536418 28.4396432,7.58052521 27.1655201,7.85089615 C25.6058178,8.18210055 24.4905377,9.34638541 24.4905377,11.424862 C24.4905377,13.5033386 25.6058178,14.2079929 27.1655201,13.8767885 C28.4379534,13.6064175 29.3690433,12.7209527 29.5836502,11.5380798 L32.2586327,10.9703009 C31.957845,13.6959779 30.041591,15.732209 27.1520016,16.3473029 C23.8467169,17.0502674 21.8020366,15.1221846 21.8020366,11.9977104 L21.8020366,11.9977104 Z M33.5361354,4.23975429 L41.5610828,2.53472756 L41.5610828,4.912302 L36.1536641,6.0613785 L36.1536641,7.82554888 L40.8462897,6.82855604 L40.8462897,9.07094502 L36.1536641,10.0679379 L36.1536641,11.8473166 L41.5610828,10.6982401 L41.5610828,13.0758146 L33.5361354,14.7808413 L33.5361354,4.23975429 L33.5361354,4.23975429 Z M43.1376834,2.1984537 L48.0449159,1.15583577 L50.8787413,10.2284706 L50.8787413,0.554260426 L53.4827514,0 L53.4827514,10.541087 L48.5755189,11.5837049 L45.7433833,2.5110701 L45.7433833,12.1852803 L43.1393732,12.7378509 L43.1393732,2.19676388 L43.1376834,2.1984537 Z" id="Shape-Copy" fill="#FFFFFF" fill-rule="nonzero"></path>
            </g>
        </g>
    </g>
</svg>