<?xml version="1.0" encoding="utf-8"?>
<svg viewBox="122.83 3.27 131.765 48.882" width="131.765" height="48.882" xmlns="http://www.w3.org/2000/svg">
  <g transform="matrix(1, 0, 0, 1, 38.83033, -2.729661)">
    <path d="M 99.059 23.882 C 107.376 23.882 114.118 30.822 114.118 39.383 C 114.118 47.943 107.376 54.882 99.059 54.882 C 90.742 54.882 84 47.943 84 39.383 C 84 30.822 90.742 23.882 99.059 23.882 Z M 100.289 33.508 C 99.03 33.508 97.821 33.98 96.664 34.923 C 95.507 35.867 94.562 37.083 93.829 38.571 C 93.097 40.059 92.731 41.401 92.731 42.596 C 92.731 43.61 93.114 44.593 93.882 45.545 C 94.65 46.497 95.529 46.973 96.519 46.973 C 98.048 46.973 99.284 46.715 100.228 46.2 C 101.171 45.684 102.098 44.955 103.01 44.011 C 103.921 43.068 104.615 42.064 105.093 41.001 C 105.57 39.938 105.809 39.034 105.809 38.29 C 105.809 37.446 105.719 36.782 105.541 36.299 C 105.362 35.815 105.005 35.347 104.468 34.893 C 103.932 34.439 103.346 34.094 102.711 33.86 C 102.075 33.626 101.268 33.508 100.289 33.508 Z M 100.289 35.249 C 100.916 35.249 101.504 35.37 102.051 35.613 C 102.599 35.856 102.988 36.161 103.216 36.527 C 103.445 36.894 103.559 37.376 103.559 37.973 C 103.559 39.667 102.87 41.268 101.493 42.776 C 100.116 44.285 98.643 45.04 97.072 45.04 C 96.516 45.04 96.024 44.799 95.596 44.319 C 95.168 43.838 94.954 43.238 94.954 42.517 C 94.954 40.941 95.561 39.335 96.774 37.701 C 97.987 36.066 99.158 35.249 100.289 35.249 Z" id="Combined-Shape" fill="#00FAC2" style=""/>
    <path d="M 132.941 16.353 C 141.258 16.353 148 23.095 148 31.412 C 148 39.729 141.258 46.471 132.941 46.471 C 124.624 46.471 117.882 39.729 117.882 31.412 C 117.882 23.095 124.624 16.353 132.941 16.353 Z M 139.248 25.483 C 139.06 25.483 138.738 25.726 138.281 26.213 C 137.824 26.699 136.974 27.789 135.732 29.482 C 134.49 31.181 133.552 32.374 132.92 33.059 C 132.756 32.69 132.43 31.823 131.944 30.458 L 130.722 27.039 L 130.73 27.054 L 130.676 26.892 C 130.588 26.669 130.449 26.431 130.256 26.177 C 130.016 25.861 129.776 25.703 129.536 25.703 C 129.09 25.703 128.73 25.788 128.455 25.958 C 128.179 26.128 128.042 26.371 128.042 26.687 C 128.042 27.297 127.973 28.061 127.835 28.981 C 127.697 29.901 127.145 32.136 126.178 35.687 C 125.944 36.554 125.827 37.269 125.827 37.832 C 125.827 38.072 125.948 38.322 126.192 38.583 C 126.435 38.844 126.697 38.974 126.978 38.974 C 127.119 38.974 127.322 38.889 127.589 38.719 C 127.856 38.549 127.995 38.391 128.006 38.245 C 128.048 37.805 128.154 37.152 128.327 36.285 C 128.5 35.418 128.66 34.675 128.806 34.057 C 128.953 33.439 129.096 32.76 129.237 32.022 L 129.685 29.737 C 129.773 29.866 129.943 30.405 130.195 31.354 C 130.306 31.764 130.5 32.368 130.775 33.165 C 131.05 33.962 131.32 34.555 131.584 34.944 C 131.847 35.334 132.149 35.529 132.489 35.529 C 133.221 35.529 134.264 34.583 135.618 32.69 L 138.545 28.735 C 138.527 28.852 138.489 29.063 138.43 29.368 C 138.266 30.212 138.085 31.42 137.885 32.993 C 137.686 34.567 137.587 35.898 137.587 36.988 C 137.587 38.142 137.97 38.719 138.738 38.719 C 139.16 38.719 139.472 38.614 139.674 38.403 C 139.876 38.192 139.977 37.797 139.977 37.216 C 139.977 36.988 139.948 36.745 139.889 36.487 C 139.807 36.153 139.766 35.828 139.766 35.511 C 139.766 35.254 139.831 34.41 139.96 32.98 C 140.089 31.55 140.232 30.258 140.39 29.104 C 140.619 27.469 140.733 26.588 140.733 26.459 C 140.733 26.289 140.557 26.084 140.206 25.843 C 139.854 25.603 139.535 25.483 139.248 25.483 Z" id="Combined-Shape" fill="#00C27B" style=""/>
    <path d="M 166.824 6 C 175.14 6 181.882 12.742 181.882 21.059 C 181.882 29.376 175.14 36.118 166.824 36.118 C 158.507 36.118 151.765 29.376 151.765 21.059 C 151.765 12.742 158.507 6 166.824 6 Z M 172.95 14.989 C 172.669 14.989 172.389 15.077 172.111 15.253 C 171.832 15.429 171.678 15.775 171.649 16.29 C 171.62 16.835 171.538 17.459 171.403 18.162 C 171.239 19.006 171.063 20.002 170.876 21.151 C 170.612 22.762 170.369 24.072 170.146 25.079 C 169.326 24.066 168.403 22.718 167.378 21.036 C 166.352 19.355 165.716 18.007 165.47 16.993 C 165.312 16.366 165.116 15.994 164.882 15.877 C 164.647 15.76 164.439 15.701 164.257 15.701 C 163.976 15.701 163.726 15.776 163.506 15.926 C 163.286 16.075 163.152 16.23 163.102 16.391 C 163.052 16.552 163.018 16.856 163.001 17.301 C 162.977 18.227 162.719 19.862 162.227 22.205 L 161.586 25.167 L 161.577 25.22 C 161.342 26.099 161.225 26.773 161.225 27.241 C 161.225 27.833 161.306 28.227 161.467 28.424 C 161.628 28.62 161.899 28.718 162.28 28.718 C 162.52 28.718 162.771 28.58 163.031 28.305 C 163.292 28.03 163.443 27.578 163.484 26.951 C 163.519 26.43 163.56 26.031 163.607 25.756 L 163.713 24.965 C 164.076 22.293 164.345 20.594 164.521 19.867 C 165.816 22.24 167.164 24.318 168.564 26.099 C 168.699 26.275 168.907 26.606 169.188 27.092 C 169.37 27.414 169.543 27.674 169.707 27.87 C 169.871 28.066 170.001 28.185 170.098 28.226 C 170.195 28.267 170.351 28.287 170.568 28.287 C 170.931 28.287 171.226 28.216 171.451 28.072 C 171.677 27.928 171.819 27.775 171.878 27.611 C 171.936 27.447 171.966 27.195 171.966 26.855 L 171.966 26.556 C 171.966 26.257 172.141 25.047 172.493 22.926 C 172.844 20.805 173.205 19.073 173.574 17.732 C 173.744 17.152 173.829 16.703 173.829 16.387 C 173.829 15.989 173.742 15.656 173.57 15.389 C 173.397 15.123 173.19 14.989 172.95 14.989 Z" id="Combined-Shape" fill="#00FAC2" style=""/>
    <path d="M 200.706 23.007 C 209.022 23.007 215.765 29.749 215.765 38.066 C 215.765 46.383 209.022 53.125 200.706 53.125 C 192.389 53.125 185.647 46.383 185.647 38.066 C 185.647 29.749 192.389 23.007 200.706 23.007 Z M 205.531 32.243 L 205.408 32.252 C 205.367 32.252 204.902 32.31 204.011 32.427 C 201.333 32.779 199.751 32.955 199.265 32.955 C 198.984 32.92 198.705 32.902 198.43 32.902 C 198.231 32.902 198.017 32.963 197.788 33.087 C 197.56 33.21 197.434 33.333 197.41 33.456 C 197.387 33.52 197.375 33.605 197.375 33.711 C 197.375 33.91 197.424 34.105 197.52 34.295 C 197.617 34.485 197.686 34.598 197.727 34.633 C 197.762 34.674 197.779 34.698 197.779 34.704 C 197.779 34.985 197.61 36.368 197.27 38.852 C 196.93 41.337 196.643 42.939 196.408 43.66 C 196.303 43.97 196.253 44.149 196.259 44.196 L 196.285 44.486 C 196.326 44.914 196.452 45.229 196.663 45.431 C 196.874 45.633 197.217 45.734 197.692 45.734 C 198.594 45.734 199.555 45.626 200.574 45.409 C 201.717 45.256 202.69 45.157 203.492 45.11 C 204.529 45.045 205.341 44.881 205.927 44.618 C 206.103 44.477 206.191 44.272 206.191 44.003 C 206.191 43.417 205.819 43.071 205.074 42.965 C 204.828 42.965 204.304 43.05 203.501 43.22 C 203.214 43.279 202.471 43.386 201.273 43.541 C 200.075 43.696 199.335 43.774 199.054 43.774 C 198.814 43.774 198.679 43.666 198.65 43.449 C 198.65 43.144 198.714 42.609 198.843 41.845 C 198.972 41.08 199.061 40.645 199.111 40.54 C 199.161 40.434 199.236 40.367 199.335 40.337 C 199.634 40.232 200.595 40.086 202.218 39.898 C 202.552 39.863 202.83 39.828 203.053 39.793 C 203.475 39.722 203.856 39.67 204.196 39.634 C 204.746 39.576 205.151 39.469 205.408 39.314 C 205.666 39.158 205.795 38.878 205.795 38.474 C 205.795 37.923 205.332 37.648 204.406 37.648 C 203.944 37.648 203.29 37.751 202.446 37.956 C 202.154 38.026 201.655 38.099 200.952 38.175 C 200.249 38.252 199.71 38.29 199.335 38.29 C 199.364 37.932 199.452 37.472 199.599 36.91 C 199.78 36.171 199.886 35.656 199.915 35.363 C 199.939 35.064 199.978 34.884 200.034 34.822 C 200.09 34.761 200.457 34.673 201.137 34.559 C 201.817 34.444 202.628 34.361 203.571 34.308 L 206.279 34.168 C 206.454 34.121 206.637 33.993 206.828 33.785 C 207.018 33.577 207.113 33.403 207.113 33.262 C 207.113 32.506 206.586 32.167 205.531 32.243 Z" id="Combined-Shape" fill="#00C27B" style=""/>
  </g>
</svg>